<svg height="auto" viewBox="0 0 2000 1000" xmlns="http://www.w3.org/2000/svg"><path d="M0 991.4c21-5.42 63-8.725 105-27.104 42-18.379 63-46.135 105-64.79 42-18.654 63-11.472 105-28.482 42-17.01 63-29.95 105-56.57 42-26.618 63-79.635 105-76.523 42 3.112 63 109.748 105 92.083 42-17.666 63-157.64 105-180.41 42-22.77 63 80.653 105 66.561 42-14.091 63-102.591 105-137.019 42-34.427 63-47.211 105-35.117 42 12.093 63 108.191 105 95.586 42-12.605 63-128.764 105-158.613 42-29.848 63 25.08 105 9.371 42-15.708 63-42.97 105-87.911 42-44.942 63-123.586 105-136.799 42-13.214 63 103.856 105 70.731s63-239.754 105-236.357c42 3.398 63 187.623 105 253.344 42 65.722 84 60.21 105 75.264l5 571.355H0Z" fill="#444cf71a"/><path d="M0 991.4c21-5.42 63-8.725 105-27.104 42-18.379 63-46.135 105-64.79 42-18.654 63-11.472 105-28.482 42-17.01 63-29.95 105-56.57 42-26.618 63-79.635 105-76.523 42 3.112 63 109.748 105 92.083 42-17.666 63-157.64 105-180.41 42-22.77 63 80.653 105 66.561 42-14.091 63-102.591 105-137.019 42-34.427 63-47.211 105-35.117 42 12.093 63 108.191 105 95.586 42-12.605 63-128.764 105-158.613 42-29.848 63 25.08 105 9.371 42-15.708 63-42.97 105-87.911 42-44.942 63-123.586 105-136.799 42-13.214 63 103.856 105 70.731s63-239.754 105-236.357c42 3.398 63 187.623 105 253.344 42 65.722 84 60.21 105 75.264" fill="none" stroke="#444cf7" stroke-width="4"/><g fill="#444cf7"><circle cy="991.4" r="8"/><circle cx="105" cy="964.296" r="8"/><circle cx="210" cy="899.506" r="8"/><circle cx="315" cy="871.024" r="8"/><circle cx="420" cy="814.455" r="8"/><circle cx="525" cy="737.931" r="8"/><circle cx="630" cy="830.014" r="8"/><circle cx="735" cy="649.604" r="8"/><circle cx="840" cy="716.165" r="8"/><circle cx="945" cy="579.146" r="8"/><circle cx="1050" cy="544.029" r="8"/><circle cx="1155" cy="639.615" r="8"/><circle cx="1260" cy="481.002" r="8"/><circle cx="1365" cy="490.373" r="8"/><circle cx="1470" cy="402.462" r="8"/><circle cx="1575" cy="265.663" r="8"/><circle cx="1680" cy="336.394" r="8"/><circle cx="1785" cy="100.037" r="8"/><circle cx="1890" cy="353.381" r="8"/><circle cx="1995" cy="428.645" r="8"/></g></svg>