<svg width="172" height="46" viewBox="0 0 172 46" fill="none" xmlns="http://www.w3.org/2000/svg">
<g id="Logo" clip-path="url(#clip0_114_654)">
<g id="Group">
<path id="Vector" d="M40.2838 10.4119L29.8922 4.6006V8.24466L38.6541 13.1454V32.9446L20.9568 42.8442L3.25733 32.9446V13.1454L12.137 8.17862V4.53456L1.6297 10.4119C0.621722 10.9762 0 12.0188 0 13.1454V32.9446C0 34.0733 0.621722 35.1138 1.6297 35.6782L19.3271 45.5778C19.8311 45.8599 20.3929 46 20.9568 46C21.5207 46 22.0825 45.8599 22.5865 45.5778L40.2838 35.6782C41.2918 35.1138 41.9135 34.0713 41.9135 32.9446V13.1454C41.9135 12.0168 41.2918 10.9762 40.2838 10.4119Z" fill="#F9572B"/>
<g id="Group_2">
<path id="Vector_2" d="M18.0751 10.7841H23.8359V5.28899L27.5497 7.36616V3.7221L20.8966 0L14.3613 3.65407V7.30013L18.0751 5.22295V10.7841Z" fill="#1A4D70"/>
<path id="Vector_3" d="M23.836 13.0974H18.0752C18.0752 21.9044 12.0584 23.5913 5.86182 23.5913V31.4678L20.9566 39.9106L36.0515 31.4678V23.5913C28.3367 23.5913 23.838 21.0899 23.838 13.0974H23.836Z" fill="#1A4D70"/>
</g>
</g>
<path id="Vector_4" d="M172 32.2742H139.578V33.537H172V32.2742Z" fill="#F9572B"/>
<path id="Vector_5" d="M88.0675 32.2742H55.645V33.537H88.0675V32.2742Z" fill="#F9572B"/>
<g id="Group_3">
<path id="Vector_6" d="M108.585 10.3038H108.221L108.213 10.3118C108.2 10.3118 108.188 10.3118 108.184 10.3138C107.868 10.618 104.827 14.16 104.706 14.3141C104.989 14.6703 106.519 16.4313 106.616 16.5113C106.62 16.5053 106.626 16.5013 106.631 16.4953L106.67 16.5393L112.1 10.3018H111.817C110.819 10.2838 109.303 10.2898 108.587 10.3018L108.585 10.3038Z" fill="#1A4D70"/>
<path id="Vector_7" d="M99.2005 10.3038C98.4074 10.2918 96.5629 10.2838 95.8317 10.3038H95.7036L95.7077 10.3078C95.7077 10.3078 95.7057 10.3078 95.7036 10.3078C97.7547 12.7252 99.8698 15.0845 101.927 17.4979C99.8574 19.8872 97.7795 22.2646 95.7119 24.6559C95.7139 24.6579 95.7181 24.6579 95.7201 24.6599L95.7036 24.68H99.5806L103.879 19.7432C104.976 20.9478 106.942 23.2852 108.171 24.6719C108.186 24.6719 108.2 24.6719 108.212 24.6719L108.219 24.68H112.096L99.5785 10.3038H99.1964H99.2005Z" fill="#1A4D70"/>
<path id="Vector_8" d="M82.6351 10.3118L75.0732 24.6819H78.7974L84.839 13.2015L88.0241 19.2509H83.3291L81.8915 21.9844H89.4617L90.8807 24.6819H94.6048L87.0429 10.3118H82.6351Z" fill="#1A4D70"/>
<path id="Vector_9" d="M120.335 10.3118L112.773 24.6819H116.498L122.539 13.2015L125.724 19.2509H121.029L119.592 21.9844H127.162L128.581 24.6819H132.305L124.743 10.3118H120.335Z" fill="#1A4D70"/>
<path id="Vector_10" d="M160.033 10.3118L152.471 24.6819H156.195L162.236 13.2015L165.419 19.2509H160.727L159.287 21.9844H166.857L168.278 24.6819H172L164.438 10.3118H160.033Z" fill="#1A4D70"/>
<path id="Vector_11" d="M151.725 13.3555C151.725 11.6646 150.31 10.2958 148.566 10.2958H134.845V13.0194H147.404C148.098 13.0194 148.659 13.5637 148.659 14.236V16.4113C148.659 17.0837 148.098 17.628 147.404 17.628H137.958V14.5682H134.845V24.6759H137.958V20.3515H148.569C150.314 20.3515 151.727 18.9807 151.727 17.2918V13.3596L151.725 13.3555Z" fill="#1A4D70"/>
<path id="Vector_12" d="M69.8683 10.296H58.9396C57.1199 10.296 55.6431 11.7248 55.6431 13.4898V21.4843C55.6431 23.2473 57.1178 24.6781 58.9396 24.6781H69.8683C71.3348 24.6781 72.5246 23.5255 72.5246 22.1047V19.4832H69.5564V21.0561C69.5564 21.5464 69.1454 21.9426 68.6414 21.9426H59.6935C59.1875 21.9426 58.7785 21.5444 58.7785 21.0561V13.908C58.7785 13.4178 59.1896 13.0215 59.6935 13.0215H68.6414C69.1474 13.0215 69.5564 13.4198 69.5564 13.908V15.2428H72.5246V12.8715C72.5246 11.4507 71.3348 10.298 69.8683 10.298V10.296Z" fill="#1A4D70"/>
</g>
<g id="Group_4">
<path id="Vector_13" d="M124.664 29.5127V36.2985H126.133V30.7974H132.214V36.2985H133.684V29.5127H124.664Z" fill="#F9572B"/>
<g id="Group_5">
<path id="Vector_14" d="M93.9624 29.7628V30.7974V36.2985H95.431V30.7974H100.372V29.5127H93.9624V29.7628Z" fill="#F9572B"/>
<path id="Vector_15" d="M109.369 29.5127H102.894V30.7974H108.82C109.146 30.7974 109.412 31.0536 109.412 31.3717V32.3983C109.412 32.7145 109.148 32.9726 108.82 32.9726H104.362V31.5278H102.894V36.2985H104.362V34.2574H109.369C110.193 34.2574 110.86 33.611 110.86 32.8125V30.9575C110.86 30.159 110.193 29.5127 109.369 29.5127Z" fill="#F9572B"/>
<path id="Vector_16" d="M120.145 29.5167V32.4643H115.419C115.249 32.4643 115.113 32.3323 115.113 32.1682V29.5127H113.645V32.5484C113.645 33.2028 114.192 33.7311 114.865 33.7311H120.145V34.7156C120.145 34.8797 120.008 35.0118 119.839 35.0118H113.645C113.645 35.7222 114.239 36.2965 114.973 36.2965H120.287C121.02 36.2965 121.615 35.7202 121.615 35.0118V29.5167H120.147H120.145Z" fill="#F9572B"/>
</g>
</g>
</g>
<defs>
<clipPath id="clip0_114_654">
<rect width="172" height="46" fill="white"/>
</clipPath>
</defs>
</svg>
