<?xml version="1.0" encoding="UTF-8" standalone="no"?>
<!-- Created with Inkscape (http://www.inkscape.org/) -->

<svg
   width="210mm"
   height="297mm"
   viewBox="0 0 210 297"
   version="1.1"
   id="svg1"
   inkscape:version="1.3.1 (5ab75fa947, 2023-11-03)"
   sodipodi:docname="иконка покупки.svg"
   xmlns:inkscape="http://www.inkscape.org/namespaces/inkscape"
   xmlns:sodipodi="http://sodipodi.sourceforge.net/DTD/sodipodi-0.dtd"
   xmlns:xlink="http://www.w3.org/1999/xlink"
   xmlns="http://www.w3.org/2000/svg"
   xmlns:svg="http://www.w3.org/2000/svg">
  <sodipodi:namedview
     id="namedview1"
     pagecolor="#ffffff"
     bordercolor="#000000"
     borderopacity="0.25"
     inkscape:showpageshadow="2"
     inkscape:pageopacity="0.0"
     inkscape:pagecheckerboard="0"
     inkscape:deskcolor="#d1d1d1"
     inkscape:document-units="mm"
     inkscape:zoom="0.69219276"
     inkscape:cx="397.28818"
     inkscape:cy="561.25984"
     inkscape:window-width="1920"
     inkscape:window-height="991"
     inkscape:window-x="-9"
     inkscape:window-y="-9"
     inkscape:window-maximized="1"
     inkscape:current-layer="layer1" />
  <defs
     id="defs1">
    <linearGradient
       id="swatch37"
       inkscape:swatch="solid">
      <stop
         style="stop-color:#1b5f3f;stop-opacity:1;"
         offset="0"
         id="stop38" />
    </linearGradient>
    <rect
       x="145.91311"
       y="515.75229"
       width="414.62439"
       height="160.35996"
       id="rect7" />
    <rect
       x="169.02806"
       y="283.15812"
       width="336.61144"
       height="169.02806"
       id="rect1" />
    <linearGradient
       id="linearGradient12"
       inkscape:collect="always">
      <stop
         style="stop-color:#e07373;stop-opacity:1;"
         offset="0"
         id="stop12" />
      <stop
         style="stop-color:#e07373;stop-opacity:0;"
         offset="1"
         id="stop13" />
    </linearGradient>
    <rect
       x="-248.4857"
       y="715.11872"
       width="593.76524"
       height="281.71343"
       id="rect11" />
    <rect
       x="179.14085"
       y="807.57851"
       width="355.39233"
       height="141.57906"
       id="rect8" />
    <linearGradient
       inkscape:collect="always"
       xlink:href="#linearGradient12"
       id="linearGradient13"
       x1="-25.38556"
       y1="223.68627"
       x2="2.4424399"
       y2="223.68627"
       gradientUnits="userSpaceOnUse" />
  </defs>
  <g
     inkscape:label="Слой 1"
     inkscape:groupmode="layer"
     id="layer1">
    <text
       xml:space="preserve"
       style="font-size:36px;line-height:403.667px;font-family:'MV Boli';-inkscape-font-specification:'MV Boli';text-align:center;writing-mode:tb-rl;direction:rtl;text-orientation:sideways;text-anchor:middle;fill:#ffd42a;fill-opacity:1;stroke-width:0.264583"
       x="193.79536"
       y="166.27414"
       id="text5"><tspan
         sodipodi:role="line"
         id="tspan5"
         style="stroke-width:0.264583"
         x="193.79536"
         y="166.27414" /></text>
    <text
       xml:space="preserve"
       style="font-style:normal;font-variant:normal;font-weight:normal;font-stretch:normal;font-size:36px;line-height:403.667px;font-family:'Matura MT Script Capitals';-inkscape-font-specification:'Matura MT Script Capitals';text-align:center;writing-mode:tb-rl;direction:rtl;text-orientation:sideways;text-anchor:middle;fill:#ffd42a;fill-opacity:1;stroke-width:0.264583"
       x="192.26642"
       y="155.57143"
       id="text6"><tspan
         sodipodi:role="line"
         id="tspan6"
         style="font-style:normal;font-variant:normal;font-weight:normal;font-stretch:normal;font-family:'Matura MT Script Capitals';-inkscape-font-specification:'Matura MT Script Capitals';stroke-width:0.264583"
         x="192.26642"
         y="155.57143" /></text>
    <text
       xml:space="preserve"
       transform="matrix(0.26458333,0,0,0.26458333,-1.8486328e-5,0)"
       id="text8"
       style="font-style:normal;font-variant:normal;font-weight:normal;font-stretch:normal;font-size:136.063px;line-height:1525.67px;font-family:'Matura MT Script Capitals';-inkscape-font-specification:'Matura MT Script Capitals';text-align:center;writing-mode:tb-rl;direction:rtl;text-orientation:sideways;white-space:pre;shape-inside:url(#rect8);display:inline;fill:#ffd42a;fill-opacity:1"><tspan
         x="-769.06473"
         y="0"
         id="tspan8"><tspan
           dy="0 82.318054 82.318054 82.318054"
           id="tspan4">РРРО</tspan></tspan></text>
    <text
       xml:space="preserve"
       style="font-style:normal;font-variant:normal;font-weight:normal;font-stretch:normal;font-size:36px;line-height:403.667px;font-family:'Matura MT Script Capitals';-inkscape-font-specification:'Matura MT Script Capitals';text-align:center;writing-mode:tb-rl;direction:rtl;text-orientation:sideways;text-anchor:middle;fill:#ffd42a;fill-opacity:1;stroke-width:0.264583"
       x="131.49036"
       y="246.16217"
       id="text9"><tspan
         sodipodi:role="line"
         id="tspan9"
         style="stroke-width:0.264583"
         x="131.49036"
         y="246.16217" /></text>
    <text
       xml:space="preserve"
       transform="scale(0.26458333)"
       id="text11"
       style="font-style:normal;font-variant:normal;font-weight:normal;font-stretch:normal;font-size:136.063px;line-height:1525.67px;font-family:'Palatino Linotype';-inkscape-font-specification:'Palatino Linotype';text-align:center;writing-mode:tb-rl;direction:rtl;text-orientation:sideways;white-space:pre;shape-inside:url(#rect11);display:inline;fill:#ffd42a;fill-opacity:1" />
    <text
       xml:space="preserve"
       transform="scale(0.26458333)"
       id="text1"
       style="font-size:52.9134px;line-height:593.319px;text-align:center;writing-mode:tb-rl;direction:rtl;text-orientation:sideways;white-space:pre;shape-inside:url(#rect1);display:inline;fill:#ff00ff"><tspan
         x="-296.65948"
         y="0"
         id="tspan10">t</tspan></text>
    <text
       xml:space="preserve"
       transform="scale(0.26458333)"
       id="text7"
       style="font-size:52.9134px;line-height:593.319px;text-align:center;writing-mode:tb-rl;direction:rtl;text-orientation:sideways;white-space:pre;shape-inside:url(#rect7);display:inline;fill:#23bb23;fill-opacity:1" />
    <ellipse
       style="opacity:0;fill:#000000;fill-opacity:1;stroke:#165c19;stroke-width:6.56499979;stroke-dasharray:none;stroke-opacity:0.39772728"
       id="path25"
       cx="77.212357"
       cy="100.72008"
       rx="47.397682"
       ry="49.117764" />
    <path
       style="opacity:0;fill:#000000;fill-opacity:1;stroke:#165c19;stroke-width:6.565;stroke-dasharray:none;stroke-opacity:0.397727"
       id="path26"
       d="m 67.020254,199.11976 c 3.782115,6.97223 8.766662,13.17364 13.703384,19.34334 6.645659,8.30545 9.538624,11.65656 16.362233,19.78715 3.374549,3.91516 9.714229,11.42999 13.548189,15.32378 2.86269,2.90737 6.05552,5.90883 9.76057,7.78136 6.62392,3.34769 4.82616,3.06814 9.96807,2.13554 0.93361,-0.82062 2.00689,-1.50546 2.80081,-2.46187 1.69994,-2.04784 3.28645,-5.61589 4.25748,-8.01281 1.82085,-4.49465 3.05437,-9.19336 4.34549,-13.85711 1.60602,-6.27753 3.26903,-12.53786 4.52168,-18.89738 0.28228,-1.91523 0.87359,-4.28904 0.12892,-6.18889 -0.17643,-0.45013 -0.43747,-0.86232 -0.65621,-1.29348 -0.40414,-0.56561 -0.75295,-1.17517 -1.21242,-1.69683 -2.64929,-3.00778 -6.08001,-5.42094 -9.52205,-7.42047 -7.03247,-4.08526 -6.07636,-3.48181 -12.43114,-6.11823 -5.89377,-2.0087 -11.90478,-4.06551 -18.12167,-4.82263 -2.4575,-0.29929 -3.1682,-0.18317 -5.485984,-0.0786 -1.550956,0.57753 -2.140199,0.57566 -3.271782,1.82178 -2.360837,2.59978 -2.135962,6.9109 -2.084975,10.14103 0.243197,2.95024 0.921192,5.83528 1.934258,8.61283 0.50483,1.3841 1.032925,2.67459 1.919481,3.86217 0.353509,0.47354 0.807545,0.86297 1.211315,1.29446 2.571227,1.61212 3.444307,2.24815 7.125397,3.59402 1.09015,0.39858 2.26891,0.49901 3.4165,0.67319 4.16862,0.63269 6.51259,0.66919 10.90683,0.95009 0,0 -2.51261,-1.85431 -2.51261,-1.85431 v 0 c -4.3679,-0.37246 -7.02868,-0.48041 -11.19241,-1.21958 -1.17942,-0.20937 -2.30968,-0.88198 -3.50442,-0.79554 -0.43031,0.0311 1.26371,0.93717 0.83536,0.98863 -0.60859,0.0731 -1.07052,-0.59739 -1.60579,-0.89608 -0.42399,-0.41097 -0.89899,-0.77514 -1.27197,-1.2329 -0.95874,-1.17667 -1.493381,-2.41267 -2.041188,-3.82139 -1.067263,-2.74452 -1.78372,-5.60549 -2.044358,-8.54291 -0.01371,-1.04908 -0.100079,-2.09973 -0.0411,-3.14725 0.155138,-2.75549 0.777832,-6.18629 3.456766,-7.64737 0.54489,-0.29719 1.16692,-0.42331 1.75038,-0.63497 2.26,-0.13089 2.87033,-0.25124 5.2828,0.0264 6.1422,0.70693 12.08458,2.72226 17.88926,4.74099 1.68095,0.71141 3.36452,1.41666 5.04285,2.13422 0.576,0.24626 1.1786,0.44207 1.72,0.75718 3.33305,1.93993 6.65912,4.23987 9.22749,7.15532 0.43706,0.49612 0.76923,1.0756 1.15385,1.61341 0.21308,0.39666 0.46233,0.77591 0.63924,1.18997 0.8136,1.90427 0.29919,4.15921 0.0842,6.11273 -1.05113,6.42073 -2.66584,12.71961 -4.18961,19.04079 -1.24877,4.65497 -2.47976,9.34128 -4.32063,13.8085 -0.99182,2.40685 -2.54837,5.78963 -4.30725,7.81002 -0.78002,0.896 -1.82931,1.51609 -2.74397,2.27413 -1.03413,0.17518 -2.08937,0.25365 -3.10238,0.52554 -0.34766,0.0933 -0.59465,0.69644 -0.92597,0.5557 -3.49769,-1.4858 -7.79306,-5.4488 -10.28925,-7.91223 -4.20609,-4.15087 -10.23566,-11.21691 -13.984789,-15.49519 -6.285516,-7.48388 -10.160603,-11.93794 -16.123142,-19.67261 -4.567838,-5.92546 -9.105887,-12.01259 -12.472964,-18.72514 z" />
    <path
       style="opacity:0;fill:#00ff00;fill-opacity:0;stroke:#1b5f3f;stroke-width:6.86501;stroke-dasharray:none;stroke-opacity:0.427273"
       id="path44"
       d="m 58.88188,52.947035 c 0.446381,0.997249 0.91254,1.985878 1.339141,2.991747 2.240124,5.281903 2.528826,6.327298 4.851344,12.026347 1.8727,4.59528 4.890908,11.7975 6.942688,16.232967 1.324864,2.864049 2.759958,5.67581 4.139938,8.513715 5.173308,9.324069 10.537504,18.956979 17.767241,26.893609 0.614207,0.67426 1.285119,1.2946 1.92768,1.9419 2.599836,2.0803 1.898743,1.6466 6.123258,3.90655 0.56912,0.30446 1.56909,0.56034 2.23359,0.54673 0.92007,-0.0188 1.43302,-0.29662 2.28752,-0.61365 3.40227,-2.10307 5.42255,-5.63268 7.28545,-9.05327 0.97216,-1.89328 1.77764,-3.8598 2.42852,-5.88375 0,0 -3.36232,-1.84085 -3.36232,-1.84085 v 0 c -0.58698,2.02401 -1.32209,3.99885 -2.28654,5.87756 -1.79853,3.36042 -3.80296,6.83639 -7.23696,8.75217 -1.17701,0.36943 -1.96752,0.62738 -3.19689,0.26684 -0.377201,-0.11062 -1.388354,-0.69653 -1.09705,-0.4326 0.533794,0.48364 1.31467,1.59658 1.85075,1.11548 0.5228,-0.46918 -1.125456,-0.84091 -1.688185,-1.26137 -0.689695,-0.65727 -1.409404,-1.28442 -2.069082,-1.97182 C 89.55403,113.06945 83.87249,103.31805 78.612864,93.827387 77.244124,90.998766 75.81376,88.199147 74.506645,85.341525 72.461746,80.870964 69.600275,73.881175 67.797137,69.229609 65.597513,63.555223 65.416612,62.703016 63.454906,57.428248 63.093665,56.456923 62.705014,55.496015 62.330067,54.529899 Z" />
    <path
       style="opacity:1;fill:#94d67e;fill-opacity:0;stroke:#000000;stroke-width:4.46373;stroke-dasharray:none;stroke-opacity:1"
       d="m 75.932919,104.05213 30.469591,-0.55976 c -2.65992,5.91891 -2.52542,7.85779 -8.285587,18.19232 H 79.942077 Z"
       id="path49"
       sodipodi:nodetypes="ccccc" />
    <path
       style="opacity:1;fill:#94d67e;fill-opacity:0;stroke:#000000;stroke-width:5.19673;stroke-dasharray:none;stroke-opacity:1"
       d="m 58.660568,105.60473 h 7.549379 l 7.549378,21.67363 29.568405,-0.61924 -0.31456,5.26359 -32.713978,-0.30962 -6.920262,-22.91212 h -5.662036 z"
       id="path50" />
    <ellipse
       style="opacity:1;fill:#94d67e;fill-opacity:0;stroke:#000000;stroke-width:4.46373;stroke-dasharray:none;stroke-opacity:1"
       id="path51"
       cx="75.008957"
       cy="139.75056"
       rx="2.2752717"
       ry="2.3147221" />
    <ellipse
       style="fill:#94d67e;fill-opacity:0;stroke:#000000;stroke-width:4.46373;stroke-dasharray:none;stroke-opacity:1"
       id="path51-1"
       cx="93.962822"
       cy="140.45784"
       rx="2.2752717"
       ry="2.3147221" />
  </g>
</svg>
